# xmcd
#
# Track frame offsets: 
#        150
#        28889
#        51606
#
# Disc length: 1159 seconds
#
# Revision: 0
# Processed by: cddbd v1.5.2PL0 Copyright (c) Steve Scherf et al.
# Submitted via: ExactAudioCopy v0.99pb5
#
DISCID=28048503
DTITLE=Last Calls - Bad Luck Charm
DYEAR=2007
DGENRE=Avantgarde
TTITLE0=Bad Luck Charm
TTITLE1=Maria´s Arms
TTITLE2=Irene
EXTD=
EXTT0=
EXTT1=
EXTT2=
PLAYORDER=
